<?xml version="1.0" encoding="UTF-8" standalone="no"?><svg xmlns="http://www.w3.org/2000/svg" xmlns:xlink="http://www.w3.org/1999/xlink" contentScriptType="application/ecmascript" contentStyleType="text/css" height="234px" preserveAspectRatio="none" style="width:461px;height:234px;" version="1.1" viewBox="0 0 461 234" width="461px" zoomAndPan="magnify"><defs/><g><!--MD5=[a6f11bb19cee6b13000111f5ad685e8b]
cluster Dependencies--><path d="M178.5,139 L272.5,139 A4.5,4.5 0 0 1 275.5,142 L282.5,159.4844 L394.5,159.4844 A3,3 0 0 1 397.5,162.4844 L397.5,219 A3,3 0 0 1 394.5,222 L178.5,222 A3,3 0 0 1 175.5,219 L175.5,142 A3,3 0 0 1 178.5,139 " fill="#FFFFFF" style="stroke: #000000; stroke-width: 1.5;"/><line style="stroke: #000000; stroke-width: 1.5;" x1="175.5" x2="282.5" y1="159.4844" y2="159.4844"/><text fill="#000000" font-family="Tahoma, sans-serif" font-size="12" font-weight="bold" lengthAdjust="spacingAndGlyphs" textLength="94" x="179.5" y="153.0059">Dependencies</text><!--MD5=[8fb31415cf2fe3335a33b70fa96e9abb]
entity lodash/lodash--><rect fill="#F8F8F8" height="34.4844" rx="3" ry="3" style="stroke: #383838; stroke-width: 1.0;" width="103" x="192" y="172"/><rect fill="#F8F8F8" height="5" style="stroke: #383838; stroke-width: 1.0;" width="10" x="187" y="177"/><rect fill="#F8F8F8" height="5" style="stroke: #383838; stroke-width: 1.0;" width="10" x="187" y="196.4844"/><text fill="#000000" font-family="Tahoma, sans-serif" font-size="12" lengthAdjust="spacingAndGlyphs" textLength="83" x="202" y="194.0059">lodash/lodash</text><!--MD5=[eac801bc0a240c84514e1045ec36163b]
entity ts-expect--><rect fill="#F8F8F8" height="34.4844" rx="3" ry="3" style="stroke: #383838; stroke-width: 1.0;" width="74" x="307.5" y="172"/><rect fill="#F8F8F8" height="5" style="stroke: #383838; stroke-width: 1.0;" width="10" x="302.5" y="177"/><rect fill="#F8F8F8" height="5" style="stroke: #383838; stroke-width: 1.0;" width="10" x="302.5" y="196.4844"/><text fill="#000000" font-family="Tahoma, sans-serif" font-size="12" lengthAdjust="spacingAndGlyphs" textLength="54" x="317.5" y="194.0059">ts-expect</text><ellipse cx="33.7487" cy="48.242" fill="#F8F8F8" rx="27.7487" ry="13.242" style="stroke: #383838; stroke-width: 0.5;"/><text fill="#000000" font-family="Tahoma, sans-serif" font-size="12" font-weight="bold" lengthAdjust="spacingAndGlyphs" textLength="35" x="16.2487" y="51.9842">index</text><!--MD5=[eb5e88b014fcb7710ea0f622fc1f7202]
entity _src_AbstractSpruceTest--><rect fill="#F8F8F8" height="34.4844" rx="3" ry="3" style="stroke: #000000; stroke-width: 0.5;" width="155" x="295" y="31"/><text fill="#000000" font-family="Tahoma, sans-serif" font-size="12" lengthAdjust="spacingAndGlyphs" textLength="135" x="305" y="53.0059">src/AbstractSpruceTest</text><!--MD5=[7050949a335d1c0d20ce52fdd4900ddf]
entity _src_assert--><rect fill="#F8F8F8" height="34.4844" rx="3" ry="3" style="stroke: #000000; stroke-width: 0.5;" width="79" x="204" y="31"/><text fill="#000000" font-family="Tahoma, sans-serif" font-size="12" lengthAdjust="spacingAndGlyphs" textLength="59" x="214" y="53.0059">src/assert</text><!--MD5=[d05419a8150fbdd39f716badc9fab7ac]
entity _src_AssertionError--><rect fill="#F8F8F8" height="34.4844" rx="3" ry="3" style="stroke: #000000; stroke-width: 0.5;" width="124" x="69.5" y="89"/><text fill="#000000" font-family="Tahoma, sans-serif" font-size="12" lengthAdjust="spacingAndGlyphs" textLength="104" x="79.5" y="111.0059">src/AssertionError</text><ellipse cx="132.7159" cy="48.2432" fill="#F8F8F8" rx="59.2159" ry="14.2432" style="stroke: #383838; stroke-width: 0.5;"/><text fill="#000000" font-family="Tahoma, sans-serif" font-size="12" lengthAdjust="spacingAndGlyphs" textLength="86" x="89.7159" y="51.9854">src/decorators</text><!--MD5=[c076adabd2652095d9b833a88bd6b8a6]
entity _src_StackCleaner--><rect fill="#F8F8F8" height="34.4844" rx="3" ry="3" style="stroke: #000000; stroke-width: 0.5;" width="118" x="41.5" y="172"/><text fill="#000000" font-family="Tahoma, sans-serif" font-size="12" lengthAdjust="spacingAndGlyphs" textLength="98" x="51.5" y="194.0059">src/StackCleaner</text><!--MD5=[c37d88f29cd273421f90f79af144b046]
link <b>index</b> to _src_AbstractSpruceTest--><path d="M45.6673,36.041 C53.0564,29.637 63.0564,22.387 73.5,19 C117.89,4.602 237.411,11.68 283.5,19 C297.08,21.157 311.405,25.055 324.499,29.309 " fill="none" id="&lt;b&gt;index&lt;/b&gt;-&gt;_src_AbstractSpruceTest" style="stroke: #000000; stroke-width: 1.0;"/><polygon fill="#000000" points="329.264,30.89,321.9812,24.2597,324.5183,29.3157,319.4623,31.8529,329.264,30.89" style="stroke: #000000; stroke-width: 1.0;"/><!--MD5=[2d28a815484c8db12b363006e65d49f9]
link <b>index</b> to _src_assert--><path d="M45.6673,36.041 C53.0564,29.637 63.0564,22.387 73.5,19 C123.386,2.819 140.743,5.803 191.5,19 C199.37,21.046 207.314,24.574 214.544,28.479 " fill="none" id="&lt;b&gt;index&lt;/b&gt;-&gt;_src_assert" style="stroke: #000000; stroke-width: 1.0;"/><polygon fill="#000000" points="218.945,30.949,213.0545,23.0558,214.5848,28.5018,209.1389,30.0321,218.945,30.949" style="stroke: #000000; stroke-width: 1.0;"/><!--MD5=[4ad2b55595ccf3e05b34094733fada71]
link <b>index</b> to src/decorators--><path d="M61.3438,48 C63.5848,48 65.8258,48 68.0668,48 " fill="none" id="&lt;b&gt;index&lt;/b&gt;-&gt;src/decorators" style="stroke: #000000; stroke-width: 1.0;"/><polygon fill="#000000" points="73.2958,48,64.2958,44,68.2958,48,64.2958,52,73.2958,48" style="stroke: #000000; stroke-width: 1.0;"/><!--MD5=[9628aa66d47e22eb45ef743211b13498]
link _src_assert to lodash/lodash--><path d="M243.5,65.217 C243.5,90.327 243.5,138.6272 243.5,166.5799 " fill="none" id="_src_assert-&gt;lodash/lodash" style="stroke: #000000; stroke-width: 0.5;"/><polygon fill="#000000" points="243.5,171.8862,247.5,162.8862,243.5,166.8862,239.5,162.8862,243.5,171.8862" style="stroke: #000000; stroke-width: 0.5;"/><!--MD5=[cf5a40fba746646eb44d5550b44903a8]
link _src_assert to _src_AssertionError--><path d="M211.405,65.047 C197.932,71.784 182.186,79.657 168.25,86.625 " fill="none" id="_src_assert-&gt;_src_AssertionError" style="stroke: #000000; stroke-width: 0.5;"/><polygon fill="#000000" points="163.599,88.95,173.4377,88.5028,168.0711,86.7139,169.86,81.3474,163.599,88.95" style="stroke: #000000; stroke-width: 0.5;"/><!--MD5=[3b1f76be469da40f9299b0d146b05153]
link _src_assert to ts-expect--><path d="M255.284,65.217 C273.757,90.641 309.505,139.8384 329.69,167.6185 " fill="none" id="_src_assert-&gt;ts-expect" style="stroke: #000000; stroke-width: 0.5;"/><polygon fill="#000000" points="332.791,171.8862,330.7358,162.2542,329.8516,167.8415,324.2642,166.9573,332.791,171.8862" style="stroke: #000000; stroke-width: 0.5;"/><!--MD5=[0c5e0383e0023819d5867a1ede253779]
link _src_AssertionError to _src_StackCleaner--><path d="M125.375,123.003 C120.567,135.568 113.829,153.1723 108.579,166.8911 " fill="none" id="_src_AssertionError-&gt;_src_StackCleaner" style="stroke: #000000; stroke-width: 0.5;"/><polygon fill="#000000" points="106.718,171.753,113.6705,164.7771,108.505,167.0833,106.1989,161.9178,106.718,171.753" style="stroke: #000000; stroke-width: 0.5;"/><script type="text/plantuml"><![CDATA[MD5=[c9cb0e0f5fa8f742946fe6e94cb04993]
@startuml

scale max 1920 width
top to bottom direction

skinparam nodesep 12
skinparam ranksep 24
skinparam monochrome true
skinparam shadowing false
skinparam defaultFontName Tahoma
skinparam defaultFontSize 12
skinparam roundCorner 6
skinparam dpi 150
skinparam arrowColor black
skinparam arrowThickness 0.5
skinparam packageTitleAlignment left

skinparam usecase {
  borderThickness 0.5
}

skinparam rectangle {
  borderThickness 0.5
}

skinparam component {
  borderThickness 1
}


(<b>index</b>)
rectangle "src/AbstractSpruceTest" as _src_AbstractSpruceTest
rectangle "src/assert" as _src_assert
rectangle "src/AssertionError" as _src_AssertionError
(src/decorators)
rectangle "src/StackCleaner" as _src_StackCleaner

package "Dependencies" {
  [lodash/lodash]
  [ts-expect]
}

(<b>index</b>) -[thickness=1]> _src_AbstractSpruceTest
(<b>index</b>) -[thickness=1]> _src_assert
(<b>index</b>) -[thickness=1]> (src/decorators)
_src_assert ---> [lodash/lodash]
_src_assert --> _src_AssertionError
_src_assert ---> [ts-expect]
_src_AssertionError --> _src_StackCleaner

@enduml


' View and edit on https://arkit.pro
]]></script></g></svg>