<?xml version="1.0" encoding="UTF-8" standalone="no"?><svg xmlns="http://www.w3.org/2000/svg" xmlns:xlink="http://www.w3.org/1999/xlink" contentScriptType="application/ecmascript" contentStyleType="text/css" height="895px" preserveAspectRatio="none" style="width:887px;height:895px;" version="1.1" viewBox="0 0 887 895" width="887px" zoomAndPan="magnify"><defs/><g><!--MD5=[a6f11bb19cee6b13000111f5ad685e8b]
cluster Dependencies--><path d="M743.844,220.079 L837.844,220.079 A4.5,4.5 0 0 1 840.844,223.079 L847.844,240.5634 L872.844,240.5634 A3,3 0 0 1 875.844,243.5634 L875.844,555.079 A3,3 0 0 1 872.844,558.079 L743.844,558.079 A3,3 0 0 1 740.844,555.079 L740.844,223.079 A3,3 0 0 1 743.844,220.079 " fill="#FFFFFF" style="stroke: #000000; stroke-width: 1.5;"/><line style="stroke: #000000; stroke-width: 1.5;" x1="740.844" x2="847.844" y1="240.5634" y2="240.5634"/><text fill="#000000" font-family="Tahoma, sans-serif" font-size="12" font-weight="bold" lengthAdjust="spacingAndGlyphs" textLength="94" x="744.844" y="234.0849">Dependencies</text><!--MD5=[4338c09a15799736a91657b0a0d395f6]
entity @sprucelabs--><rect fill="#F8F8F8" height="34.4844" rx="3" ry="3" style="stroke: #383838; stroke-width: 1.0;" width="95" x="760.844" y="253.079"/><rect fill="#F8F8F8" height="5" style="stroke: #383838; stroke-width: 1.0;" width="10" x="755.844" y="258.079"/><rect fill="#F8F8F8" height="5" style="stroke: #383838; stroke-width: 1.0;" width="10" x="755.844" y="277.5634"/><text fill="#000000" font-family="Tahoma, sans-serif" font-size="12" lengthAdjust="spacingAndGlyphs" textLength="75" x="770.844" y="275.0849">@sprucelabs</text><!--MD5=[615ad5ae550da5648017cdb20aa0d703]
entity chalk--><rect fill="#F8F8F8" height="34.4844" rx="3" ry="3" style="stroke: #383838; stroke-width: 1.0;" width="50" x="783.344" y="355.079"/><rect fill="#F8F8F8" height="5" style="stroke: #383838; stroke-width: 1.0;" width="10" x="778.344" y="360.079"/><rect fill="#F8F8F8" height="5" style="stroke: #383838; stroke-width: 1.0;" width="10" x="778.344" y="379.5634"/><text fill="#000000" font-family="Tahoma, sans-serif" font-size="12" lengthAdjust="spacingAndGlyphs" textLength="30" x="793.344" y="377.0849">chalk</text><!--MD5=[859f94bf02821f3b7251cb78ca441081]
entity deep-equal--><rect fill="#F8F8F8" height="34.4844" rx="3" ry="3" style="stroke: #383838; stroke-width: 1.0;" width="84" x="766.344" y="457.079"/><rect fill="#F8F8F8" height="5" style="stroke: #383838; stroke-width: 1.0;" width="10" x="761.344" y="462.079"/><rect fill="#F8F8F8" height="5" style="stroke: #383838; stroke-width: 1.0;" width="10" x="761.344" y="481.5634"/><text fill="#000000" font-family="Tahoma, sans-serif" font-size="12" lengthAdjust="spacingAndGlyphs" textLength="64" x="776.344" y="479.0849">deep-equal</text><!--MD5=[8fb31415cf2fe3335a33b70fa96e9abb]
entity lodash/lodash--><rect fill="#F8F8F8" height="34.4844" rx="3" ry="3" style="stroke: #383838; stroke-width: 1.0;" width="103" x="756.844" y="406.079"/><rect fill="#F8F8F8" height="5" style="stroke: #383838; stroke-width: 1.0;" width="10" x="751.844" y="411.079"/><rect fill="#F8F8F8" height="5" style="stroke: #383838; stroke-width: 1.0;" width="10" x="751.844" y="430.5634"/><text fill="#000000" font-family="Tahoma, sans-serif" font-size="12" lengthAdjust="spacingAndGlyphs" textLength="83" x="766.844" y="428.0849">lodash/lodash</text><!--MD5=[eac801bc0a240c84514e1045ec36163b]
entity ts-expect--><rect fill="#F8F8F8" height="34.4844" rx="3" ry="3" style="stroke: #383838; stroke-width: 1.0;" width="74" x="771.344" y="304.079"/><rect fill="#F8F8F8" height="5" style="stroke: #383838; stroke-width: 1.0;" width="10" x="766.344" y="309.079"/><rect fill="#F8F8F8" height="5" style="stroke: #383838; stroke-width: 1.0;" width="10" x="766.344" y="328.5634"/><text fill="#000000" font-family="Tahoma, sans-serif" font-size="12" lengthAdjust="spacingAndGlyphs" textLength="54" x="781.344" y="326.0849">ts-expect</text><!--MD5=[3b9e8bd18a3ad7184ebfae086f6c48c8]
entity variable-diff--><rect fill="#F8F8F8" height="34.4844" rx="3" ry="3" style="stroke: #383838; stroke-width: 1.0;" width="87" x="764.844" y="508.079"/><rect fill="#F8F8F8" height="5" style="stroke: #383838; stroke-width: 1.0;" width="10" x="759.844" y="513.079"/><rect fill="#F8F8F8" height="5" style="stroke: #383838; stroke-width: 1.0;" width="10" x="759.844" y="532.5634"/><text fill="#000000" font-family="Tahoma, sans-serif" font-size="12" lengthAdjust="spacingAndGlyphs" textLength="67" x="774.844" y="530.0849">variable-diff</text><!--MD5=[9bd5449c27afb67f4b2cd2dd0d42bff8]
entity _AbstractSpruceTest_d--><rect fill="#F8F8F8" height="34.4844" rx="3" ry="3" style="stroke: #000000; stroke-width: 0.5;" width="162" x="39.3443" y="8.079"/><text fill="#000000" font-family="Tahoma, sans-serif" font-size="12" font-weight="bold" lengthAdjust="spacingAndGlyphs" textLength="142" x="49.3443" y="30.0849">AbstractSpruceTest.d</text><!--MD5=[13ace85ca544e696d563dbfef0e29018]
entity _assert_d--><rect fill="#F8F8F8" height="34.4844" rx="3" ry="3" style="stroke: #000000; stroke-width: 0.5;" width="74" x="446.844" y="59.079"/><text fill="#000000" font-family="Tahoma, sans-serif" font-size="12" font-weight="bold" lengthAdjust="spacingAndGlyphs" textLength="54" x="456.844" y="81.0849">assert.d</text><!--MD5=[2b32b1497ff47509ee55f3459d73f71b]
entity _assert_utility_d--><rect fill="#F8F8F8" height="34.4844" rx="3" ry="3" style="stroke: #000000; stroke-width: 0.5;" width="115" x="62.8443" y="367.079"/><text fill="#000000" font-family="Tahoma, sans-serif" font-size="12" font-weight="bold" lengthAdjust="spacingAndGlyphs" textLength="95" x="72.8443" y="389.0849">assert.utility.d</text><!--MD5=[90ff19d65dd00426c2eb8a568b569e39]
entity _AssertionError_d--><rect fill="#F8F8F8" height="34.4844" rx="3" ry="3" style="stroke: #000000; stroke-width: 0.5;" width="127" x="56.8443" y="59.079"/><text fill="#000000" font-family="Tahoma, sans-serif" font-size="12" font-weight="bold" lengthAdjust="spacingAndGlyphs" textLength="107" x="66.8443" y="81.0849">AssertionError.d</text><ellipse cx="120.4714" cy="285.321" fill="#F8F8F8" rx="25.6274" ry="13.242" style="stroke: #383838; stroke-width: 0.5;"/><text fill="#000000" font-family="Tahoma, sans-serif" font-size="12" font-weight="bold" lengthAdjust="spacingAndGlyphs" textLength="32" x="104.4714" y="289.0632">build</text><ellipse cx="120.437" cy="189.1976" fill="#F8F8F8" rx="83.593" ry="19.1186" style="stroke: #383838; stroke-width: 0.5;"/><text fill="#000000" font-family="Tahoma, sans-serif" font-size="12" lengthAdjust="spacingAndGlyphs" textLength="144" x="48.437" y="192.9398">build/AbstractSpruceTest</text><ellipse cx="120.4273" cy="337.321" fill="#F8F8F8" rx="51.0833" ry="13.242" style="stroke: #383838; stroke-width: 0.5;"/><text fill="#000000" font-family="Tahoma, sans-serif" font-size="12" lengthAdjust="spacingAndGlyphs" textLength="68" x="86.4273" y="341.0632">build/assert</text><ellipse cx="483.952" cy="197.0006" fill="#F8F8F8" rx="70.108" ry="16.4216" style="stroke: #383838; stroke-width: 0.5;"/><text fill="#000000" font-family="Tahoma, sans-serif" font-size="12" lengthAdjust="spacingAndGlyphs" textLength="113" x="427.452" y="200.7428">build/AssertionError</text><ellipse cx="120.5724" cy="240.0247" fill="#F8F8F8" rx="62.7284" ry="14.9457" style="stroke: #383838; stroke-width: 0.5;"/><text fill="#000000" font-family="Tahoma, sans-serif" font-size="12" lengthAdjust="spacingAndGlyphs" textLength="95" x="73.0724" y="243.7669">build/decorators</text><ellipse cx="655.4465" cy="150.9995" fill="#F8F8F8" rx="67.6025" ry="15.9205" style="stroke: #383838; stroke-width: 0.5;"/><text fill="#000000" font-family="Tahoma, sans-serif" font-size="12" lengthAdjust="spacingAndGlyphs" textLength="107" x="601.9465" y="154.7417">build/StackCleaner</text><ellipse cx="308.6784" cy="25.2459" fill="#F8F8F8" rx="58.8344" ry="14.1669" style="stroke: #383838; stroke-width: 0.5;"/><text fill="#000000" font-family="Tahoma, sans-serif" font-size="12" font-weight="bold" lengthAdjust="spacingAndGlyphs" textLength="85" x="266.1784" y="28.9881">decorators.d</text><ellipse cx="120.578" cy="140.321" fill="#F8F8F8" rx="36.234" ry="13.242" style="stroke: #383838; stroke-width: 0.5;"/><text fill="#000000" font-family="Tahoma, sans-serif" font-size="12" font-weight="bold" lengthAdjust="spacingAndGlyphs" textLength="47" x="97.078" y="144.0632">index.d</text><ellipse cx="655.5724" cy="199.0247" fill="#F8F8F8" rx="62.7284" ry="14.9457" style="stroke: #383838; stroke-width: 0.5;"/><text fill="#000000" font-family="Tahoma, sans-serif" font-size="12" font-weight="bold" lengthAdjust="spacingAndGlyphs" textLength="95" x="608.0724" y="202.7669">release.config</text><ellipse cx="120.1932" cy="506.321" fill="#F8F8F8" rx="17.8492" ry="13.242" style="stroke: #383838; stroke-width: 0.5;"/><text fill="#000000" font-family="Tahoma, sans-serif" font-size="12" font-weight="bold" lengthAdjust="spacingAndGlyphs" textLength="21" x="109.6932" y="510.0632">src</text><!--MD5=[eb5e88b014fcb7710ea0f622fc1f7202]
entity _src_AbstractSpruceTest--><rect fill="#F8F8F8" height="34.4844" rx="3" ry="3" style="stroke: #000000; stroke-width: 0.5;" width="155" x="42.8443" y="536.079"/><text fill="#000000" font-family="Tahoma, sans-serif" font-size="12" lengthAdjust="spacingAndGlyphs" textLength="135" x="52.8443" y="558.0849">src/AbstractSpruceTest</text><!--MD5=[7050949a335d1c0d20ce52fdd4900ddf]
entity _src_assert--><rect fill="#F8F8F8" height="34.4844" rx="3" ry="3" style="stroke: #000000; stroke-width: 0.5;" width="79" x="80.8443" y="632.079"/><text fill="#000000" font-family="Tahoma, sans-serif" font-size="12" lengthAdjust="spacingAndGlyphs" textLength="59" x="90.8443" y="654.0849">src/assert</text><!--MD5=[d05419a8150fbdd39f716badc9fab7ac]
entity _src_AssertionError--><rect fill="#F8F8F8" height="34.4844" rx="3" ry="3" style="stroke: #000000; stroke-width: 0.5;" width="124" x="421.844" y="511.079"/><text fill="#000000" font-family="Tahoma, sans-serif" font-size="12" lengthAdjust="spacingAndGlyphs" textLength="104" x="431.844" y="533.0849">src/AssertionError</text><ellipse cx="120.5599" cy="601.3222" fill="#F8F8F8" rx="59.2159" ry="14.2432" style="stroke: #383838; stroke-width: 0.5;"/><text fill="#000000" font-family="Tahoma, sans-serif" font-size="12" lengthAdjust="spacingAndGlyphs" textLength="86" x="77.5599" y="605.0644">src/decorators</text><!--MD5=[c076adabd2652095d9b833a88bd6b8a6]
entity _src_StackCleaner--><rect fill="#F8F8F8" height="34.4844" rx="3" ry="3" style="stroke: #000000; stroke-width: 0.5;" width="118" x="596.344" y="494.079"/><text fill="#000000" font-family="Tahoma, sans-serif" font-size="12" lengthAdjust="spacingAndGlyphs" textLength="98" x="606.344" y="516.0849">src/StackCleaner</text><!--MD5=[ae624f23793cb159d3d848ce4f20be36]
entity _StackCleaner_d--><rect fill="#F8F8F8" height="34.4844" rx="3" ry="3" style="stroke: #000000; stroke-width: 0.5;" width="119" x="249.344" y="56.079"/><text fill="#000000" font-family="Tahoma, sans-serif" font-size="12" font-weight="bold" lengthAdjust="spacingAndGlyphs" textLength="99" x="259.344" y="78.0849">StackCleaner.d</text><ellipse cx="308.7961" cy="253.1694" fill="#F8F8F8" rx="70.9521" ry="16.5904" style="stroke: #383838; stroke-width: 0.5;"/><text fill="#000000" font-family="Tahoma, sans-serif" font-size="12" lengthAdjust="spacingAndGlyphs" textLength="115" x="251.2961" y="256.9116">utilities/assert.utility</text><!--MD5=[16164b954efd3f80b47df4057c6df1dd]
entity _utilities_assert_utility--><rect fill="#F8F8F8" height="34.4844" rx="3" ry="3" style="stroke: #000000; stroke-width: 0.5;" width="135" x="241.344" y="554.079"/><text fill="#000000" font-family="Tahoma, sans-serif" font-size="12" lengthAdjust="spacingAndGlyphs" textLength="115" x="251.344" y="576.0849">utilities/assert.utility</text><!--MD5=[ba852354e3153a455459fd0f998fbef9]
link _assert_d to ts-expect--><path d="M520.888,71.738 C574.134,67.573 672.885,68.885 722.844,127.079 C747.35,155.624 709.985,266.2 732.844,296.079 C740.894,306.601 753.557,312.738 766.175,316.302 " fill="none" id="_assert_d-&gt;ts-expect" style="stroke: #000000; stroke-width: 1.0;"/><polygon fill="#000000" points="771.186,317.59,763.4645,311.4762,766.3433,316.3458,761.4737,319.2245,771.186,317.59" style="stroke: #000000; stroke-width: 1.0;"/><!--MD5=[8c94dd0de13758a8bb515e200ba39f7b]
link _assert_utility_d to build/assert--><path d="M120.344,366.821 C120.344,362.987 120.344,359.154 120.344,355.32 " fill="none" id="_assert_utility_d-&gt;build/assert" style="stroke: #000000; stroke-width: 1.0;"/><polygon fill="#000000" points="120.344,350.091,116.344,359.091,120.344,355.091,124.344,359.091,120.344,350.091" style="stroke: #000000; stroke-width: 1.0;"/><!--MD5=[e58b6a8efda0129f8f2711f7bf4f1701]
link <b>build</b> to build/AbstractSpruceTest--><path d="M94.5391,286.176 C70.1318,285.597 35.0445,280.174 19.8443,255.579 C12.8345,244.237 12.8345,236.921 19.8443,225.579 C26.2914,215.148 36.1037,207.669 47.115,202.314 " fill="none" id="&lt;b&gt;build&lt;/b&gt;-&gt;build/AbstractSpruceTest" style="stroke: #000000; stroke-width: 1.0;"/><polygon fill="#000000" points="51.9013,200.147,42.0527,200.2159,47.3466,202.2096,45.3529,207.5035,51.9013,200.147" style="stroke: #000000; stroke-width: 1.0;"/><!--MD5=[2b062971fe49f183c03b0996a50b0394]
link <b>build</b> to build/assert--><path d="M120.344,298.346 C120.344,305.073 120.344,311.801 120.344,318.528 " fill="none" id="&lt;b&gt;build&lt;/b&gt;-&gt;build/assert" style="stroke: #000000; stroke-width: 1.0;"/><polygon fill="#000000" points="120.344,323.673,124.344,314.673,120.344,318.673,116.344,314.673,120.344,323.673" style="stroke: #000000; stroke-width: 1.0;"/><!--MD5=[95724569a776bcf6ac2edd6f645e0d76]
link <b>build</b> to build/decorators--><path d="M120.344,272.071 C120.344,268.291 120.344,264.511 120.344,260.73 " fill="none" id="&lt;b&gt;build&lt;/b&gt;-&gt;build/decorators" style="stroke: #000000; stroke-width: 1.0;"/><polygon fill="#000000" points="120.344,255.575,116.344,264.575,120.344,260.575,124.344,264.575,120.344,255.575" style="stroke: #000000; stroke-width: 1.0;"/><!--MD5=[d9a2452492f29647d8ba57da88b534c5]
link <b>build</b> to build/StackCleaner--><path d="M145.457,282.569 C162.678,279.941 185.881,274.643 203.844,264.079 C222.815,252.923 219.21,239.788 237.844,228.079 C344.676,160.951 495.404,149.217 583.194,148.777 " fill="none" id="&lt;b&gt;build&lt;/b&gt;-&gt;build/StackCleaner" style="stroke: #000000; stroke-width: 1.0;"/><polygon fill="#000000" points="588.365,148.764,579.3547,144.7872,583.365,148.7769,579.3753,152.7871,588.365,148.764" style="stroke: #000000; stroke-width: 1.0;"/><!--MD5=[0977a33b906d988dcbad1f9a99b6f3d1]
link <b>build</b> to utilities/assert.utility--><path d="M144.965,281.026 C170.282,276.682 211.509,269.609 246.149,263.665 " fill="none" id="&lt;b&gt;build&lt;/b&gt;-&gt;utilities/assert.utility" style="stroke: #000000; stroke-width: 1.0;"/><polygon fill="#000000" points="251.21,262.797,241.663,260.3772,246.2821,263.6429,243.0164,268.2619,251.21,262.797" style="stroke: #000000; stroke-width: 1.0;"/><!--MD5=[5cf08466d351bf1629d5dc526f17372d]
link build/assert to chalk--><path d="M170.361,334.508 C191.164,333.538 215.682,332.555 237.844,332.079 C453.35,327.457 532.794,230.368 722.844,332.079 C729.909,335.86 726.482,342.209 732.844,347.079 C746.082,357.211 763.655,363.366 778.409,367.033 " fill="none" id="build/assert-&gt;chalk" style="stroke: #000000; stroke-width: 0.5;"/><polygon fill="#000000" points="783.294,368.183,775.45,362.2272,778.427,367.0373,773.6169,370.0144,783.294,368.183" style="stroke: #000000; stroke-width: 0.5;"/><!--MD5=[3abd471c4e5aae9a7e8d95856c072f90]
link build/assert to deep-equal--><path d="M155.978,346.442 C184.379,354.036 222.332,363.972 237.844,367.079 C451.392,409.854 532.738,330.817 722.844,437.079 C728.904,440.467 727.114,445.16 732.844,449.079 C741.36,454.904 751.346,459.469 761.19,463.011 " fill="none" id="build/assert-&gt;deep-equal" style="stroke: #000000; stroke-width: 0.5;"/><polygon fill="#000000" points="766.004,464.668,758.7959,457.9566,761.2762,463.0406,756.1921,465.521,766.004,464.668" style="stroke: #000000; stroke-width: 0.5;"/><!--MD5=[dbefa901d364cc6a7ceb82c76744168b]
link build/assert to lodash/lodash--><path d="M170.452,339.785 C273.536,346.034 519.736,363.947 722.844,402.079 C732.206,403.837 742.079,406.002 751.645,408.267 " fill="none" id="build/assert-&gt;lodash/lodash" style="stroke: #000000; stroke-width: 0.5;"/><polygon fill="#000000" points="756.614,409.459,748.7948,403.4707,751.7518,408.2931,746.9294,411.2501,756.614,409.459" style="stroke: #000000; stroke-width: 0.5;"/><!--MD5=[636e283ffa366cd673627bae1245b06b]
link build/assert to ts-expect--><path d="M158.89,345.604 C181.607,350.322 211.233,355.7 237.844,358.079 C435.429,375.745 672.298,343.147 766.149,328.101 " fill="none" id="build/assert-&gt;ts-expect" style="stroke: #000000; stroke-width: 0.5;"/><polygon fill="#000000" points="771.317,327.267,761.7944,324.7531,766.381,328.0642,763.0699,332.6508,771.317,327.267" style="stroke: #000000; stroke-width: 0.5;"/><!--MD5=[db9686401bcfe0240eb67c1834900738]
link build/assert to utilities/assert.utility--><path d="M152.279,326.902 C167.926,321.485 187.1,314.434 203.844,307.079 C228.781,296.127 256.078,281.862 276.447,270.744 " fill="none" id="build/assert-&gt;utilities/assert.utility" style="stroke: #000000; stroke-width: 0.5;"/><polygon fill="#000000" points="280.946,268.278,271.1312,269.0958,276.5613,270.6811,274.9761,276.1112,280.946,268.278" style="stroke: #000000; stroke-width: 0.5;"/><!--MD5=[f686fac8f5883f6fd82d417eeacdc65b]
link build/assert to variable-diff--><path d="M162.352,344.659 C175.969,348.044 190.939,352.738 203.844,359.079 C220.917,367.469 220.546,377.165 237.844,385.079 C337.954,430.88 630.633,425.938 722.844,486.079 C729.249,490.256 726.698,495.53 732.844,500.079 C740.782,505.954 750.187,510.505 759.594,514.012 " fill="none" id="build/assert-&gt;variable-diff" style="stroke: #000000; stroke-width: 0.5;"/><polygon fill="#000000" points="764.507,515.752,757.3598,508.9757,759.7941,514.082,754.6878,516.5163,764.507,515.752" style="stroke: #000000; stroke-width: 0.5;"/><!--MD5=[28b8b06da52f3a3da08a01c1cd06abee]
link build/AssertionError to build/StackCleaner--><path d="M530.713,184.631 C553.78,178.371 581.752,170.78 605.251,164.403 " fill="none" id="build/AssertionError-&gt;build/StackCleaner" style="stroke: #000000; stroke-width: 0.5;"/><polygon fill="#000000" points="610.194,163.061,600.4604,161.5585,605.3686,164.3709,602.5563,169.2791,610.194,163.061" style="stroke: #000000; stroke-width: 0.5;"/><!--MD5=[43502d604e2f1f13c1e9650addd54ebd]
link <b>index.d</b> to build/AbstractSpruceTest--><path d="M120.344,153.143 C120.344,156.992 120.344,160.841 120.344,164.69 " fill="none" id="&lt;b&gt;index.d&lt;/b&gt;-&gt;build/AbstractSpruceTest" style="stroke: #000000; stroke-width: 1.0;"/><polygon fill="#000000" points="120.344,169.939,124.344,160.939,120.344,164.939,116.344,160.939,120.344,169.939" style="stroke: #000000; stroke-width: 1.0;"/><!--MD5=[89c4e87b8d754abdc8efd1b86024ba1d]
link <b>index.d</b> to build/assert--><path d="M84.1509,139.926 C61.0397,142.036 33.025,149.252 19.8443,170.579 C4.8901,194.776 4.8901,274.383 19.8443,298.579 C30.3046,315.504 49.4521,325.01 68.2497,330.341 " fill="none" id="&lt;b&gt;index.d&lt;/b&gt;-&gt;build/assert" style="stroke: #000000; stroke-width: 1.0;"/><polygon fill="#000000" points="73.5348,331.737,65.8543,325.5717,68.7005,330.4604,63.8118,333.3066,73.5348,331.737" style="stroke: #000000; stroke-width: 1.0;"/><!--MD5=[2a340b8a9a73317e8a682e727b23da9a]
link <b>index.d</b> to build/decorators--><path d="M84.1509,139.926 C61.0397,142.036 33.025,149.252 19.8443,170.579 C10.9652,184.946 10.9652,194.213 19.8443,208.579 C27.8331,221.506 41.2263,229.359 55.6731,234.071 " fill="none" id="&lt;b&gt;index.d&lt;/b&gt;-&gt;build/decorators" style="stroke: #000000; stroke-width: 1.0;"/><polygon fill="#000000" points="60.6066,235.551,53.1361,229.133,55.8176,234.1139,50.8367,236.7954,60.6066,235.551" style="stroke: #000000; stroke-width: 1.0;"/><!--MD5=[7cb8c357a5013ada26584699fcca77db]
link <b>index.d</b> to build/StackCleaner--><path d="M156.413,139.011 C230.08,137.02 406.301,133.586 553.844,141.079 C565.336,141.663 577.541,142.604 589.337,143.682 " fill="none" id="&lt;b&gt;index.d&lt;/b&gt;-&gt;build/StackCleaner" style="stroke: #000000; stroke-width: 1.0;"/><polygon fill="#000000" points="594.364,144.152,585.7757,139.3312,589.3857,143.6863,585.0306,147.2964,594.364,144.152" style="stroke: #000000; stroke-width: 1.0;"/><!--MD5=[e87d4cccd73123a52ed71e463c8d7dd0]
link <b>index.d</b> to utilities/assert.utility--><path d="M153.563,145.109 C169.357,148.445 188.278,153.782 203.844,162.079 C238.325,180.458 271.026,212.283 290.256,233.007 " fill="none" id="&lt;b&gt;index.d&lt;/b&gt;-&gt;utilities/assert.utility" style="stroke: #000000; stroke-width: 1.0;"/><polygon fill="#000000" points="293.687,236.742,290.5446,227.4079,290.3046,233.0597,284.6529,232.8197,293.687,236.742" style="stroke: #000000; stroke-width: 1.0;"/><!--MD5=[79022f06dc1b415141bb24c965e51c14]
link <b>release.config</b> to @sprucelabs--><path d="M688.345,212.004 C699.354,216.595 711.709,221.91 722.844,227.079 C738.675,234.428 755.888,243.066 770.622,250.665 " fill="none" id="&lt;b&gt;release.config&lt;/b&gt;-&gt;@sprucelabs" style="stroke: #000000; stroke-width: 1.0;"/><polygon fill="#000000" points="775.111,252.987,768.9545,245.2995,770.6699,250.69,765.2793,252.4053,775.111,252.987" style="stroke: #000000; stroke-width: 1.0;"/><!--MD5=[b86ea30270945b3b6183bbf80994215b]
link <b>src</b> to _src_AbstractSpruceTest--><path d="M120.344,519.091 C120.344,522.925 120.344,526.759 120.344,530.593 " fill="none" id="&lt;b&gt;src&lt;/b&gt;-&gt;_src_AbstractSpruceTest" style="stroke: #000000; stroke-width: 1.0;"/><polygon fill="#000000" points="120.344,535.821,124.344,526.821,120.344,530.821,116.344,526.821,120.344,535.821" style="stroke: #000000; stroke-width: 1.0;"/><!--MD5=[7b40a78a37e275eb69169cbfef23c3f5]
link <b>src</b> to _src_assert--><path d="M102.3866,505.157 C78.3595,505.055 36.8115,509.126 19.8443,536.579 C1.3853,566.447 1.3853,585.712 19.8443,615.579 C31.5259,634.481 54.565,643.003 75.6399,646.733 " fill="none" id="&lt;b&gt;src&lt;/b&gt;-&gt;_src_assert" style="stroke: #000000; stroke-width: 1.0;"/><polygon fill="#000000" points="80.6638,647.54,72.4129,642.162,75.7272,646.7463,71.1429,650.0606,80.6638,647.54" style="stroke: #000000; stroke-width: 1.0;"/><!--MD5=[491df807adc5051ba264f142c53c08e0]
link <b>src</b> to src/decorators--><path d="M102.3866,505.157 C78.3595,505.055 36.8115,509.126 19.8443,536.579 C11.8999,549.434 11.8999,557.725 19.8443,570.579 C28.1983,584.096 42.5113,591.945 57.758,596.418 " fill="none" id="&lt;b&gt;src&lt;/b&gt;-&gt;src/decorators" style="stroke: #000000; stroke-width: 1.0;"/><polygon fill="#000000" points="62.9571,597.809,55.2966,591.619,58.127,596.5168,53.2291,599.3472,62.9571,597.809" style="stroke: #000000; stroke-width: 1.0;"/><!--MD5=[2eaa9f6982ecce6151ee2ac2211d7f74]
link <b>src</b> to _src_StackCleaner--><path d="M138.659,505.38 C197.115,503.142 392.531,496.669 553.844,503.079 C565.857,503.557 578.659,504.354 590.961,505.265 " fill="none" id="&lt;b&gt;src&lt;/b&gt;-&gt;_src_StackCleaner" style="stroke: #000000; stroke-width: 1.0;"/><polygon fill="#000000" points="596.199,505.661,587.5277,500.9911,591.2134,505.2824,586.922,508.9681,596.199,505.661" style="stroke: #000000; stroke-width: 1.0;"/><!--MD5=[48daec5c0a51730c61102907b8c3fddf]
link <b>src</b> to _utilities_assert_utility--><path d="M137.656,509.759 C154.436,513.7 181.238,520.429 203.844,528.079 C224.317,535.008 246.517,543.978 265.128,551.932 " fill="none" id="&lt;b&gt;src&lt;/b&gt;-&gt;_utilities_assert_utility" style="stroke: #000000; stroke-width: 1.0;"/><polygon fill="#000000" points="269.779,553.93,263.0894,546.7016,265.1852,551.9559,259.9309,554.0517,269.779,553.93" style="stroke: #000000; stroke-width: 1.0;"/><!--MD5=[63b95b48723dc574cdcea76906e86c35]
link _src_assert to chalk--><path d="M153.413,666.293 C176.234,677.531 208.016,691.175 237.844,697.079 C452.014,739.4715 582.83,786.5961 722.844,619.079 C738.608,600.219 718.162,417.794 732.844,398.079 C743.283,384.062 761.82,377.559 777.791,374.561 " fill="none" id="_src_assert-&gt;chalk" style="stroke: #000000; stroke-width: 0.5;"/><polygon fill="#000000" points="783.093,373.673,773.556,371.2142,778.1616,374.4987,774.8771,379.1043,783.093,373.673" style="stroke: #000000; stroke-width: 0.5;"/><!--MD5=[e977cb1cf7b1c6fa7450d4457b5aee50]
link _src_assert to deep-equal--><path d="M160.121,661.403 C280.081,698.423 641.942,801.4507 722.844,724.079 C740.849,706.86 717.97,520.065 732.844,500.079 C739.724,490.835 750.126,484.859 760.993,481.001 " fill="none" id="_src_assert-&gt;deep-equal" style="stroke: #000000; stroke-width: 0.5;"/><polygon fill="#000000" points="766.008,479.373,756.2129,478.3455,761.252,480.9159,758.6816,485.9551,766.008,479.373" style="stroke: #000000; stroke-width: 0.5;"/><!--MD5=[9628aa66d47e22eb45ef743211b13498]
link _src_assert to lodash/lodash--><path d="M160.202,654.924 C280.4,672.049 642.885,716.213 722.844,639.079 C738.059,624.402 720.155,465.988 732.844,449.079 C737.815,442.456 744.593,437.51 752.047,433.82 " fill="none" id="_src_assert-&gt;lodash/lodash" style="stroke: #000000; stroke-width: 0.5;"/><polygon fill="#000000" points="756.765,431.681,746.9164,431.7544,752.2112,433.7457,750.2199,439.0405,756.765,431.681" style="stroke: #000000; stroke-width: 0.5;"/><!--MD5=[3b1f76be469da40f9299b0d146b05153]
link _src_assert to ts-expect--><path d="M159.927,656.023 C268.204,673.034 576.518,704.035 722.844,537.079 C750.712,505.282 707.466,380.896 732.844,347.079 C740.829,336.439 753.476,330.13 766.1,326.397 " fill="none" id="_src_assert-&gt;ts-expect" style="stroke: #000000; stroke-width: 0.5;"/><polygon fill="#000000" points="771.114,325.043,761.3822,323.5291,766.2871,326.3472,763.4689,331.2521,771.114,325.043" style="stroke: #000000; stroke-width: 0.5;"/><!--MD5=[7684a586e7571ed6ce1872831b68fb23]
link _src_assert to _utilities_assert_utility--><path d="M160.028,647.443 C174.166,643.946 190.062,638.643 203.844,632.079 C220.315,624.234 221.832,617.823 237.844,609.079 C250.138,602.366 264.244,596.072 276.557,590.432 " fill="none" id="_src_assert-&gt;_utilities_assert_utility" style="stroke: #000000; stroke-width: 0.5;"/><polygon fill="#000000" points="281.357,588.221,271.509,588.3524,276.8154,590.3125,274.8554,595.6189,281.357,588.221" style="stroke: #000000; stroke-width: 0.5;"/><!--MD5=[22a64ca50d87dcbe74584438d6fb6bbf]
link _utilities_assert_utility to _src_assert--><path d="M245.341,588.148 C242.789,589.434 240.281,590.749 237.844,592.079 C221.832,600.823 220.315,607.234 203.844,615.079 C191.088,621.155 176.521,626.149 163.213,630.485 " fill="none" id="_utilities_assert_utility-&gt;_src_assert" style="stroke: #000000; stroke-width: 0.5;"/><polygon fill="#000000" points="158.373,632.053,168.1677,633.084,163.1295,630.5118,165.7018,625.4736,158.373,632.053" style="stroke: #000000; stroke-width: 0.5;"/><!--MD5=[44940a4d53926bf66092f1663e5af36f]
link _src_assert to variable-diff--><path d="M139.475,666.196 C161.095,685.545 199.187,716.386 237.844,732.0792 C437.879,813.2838 546.155,883.1316 722.844,759.0792 C793.276,709.63 805.26,595.412 807.111,547.195 " fill="none" id="_src_assert-&gt;variable-diff" style="stroke: #000000; stroke-width: 0.5;"/><polygon fill="#000000" points="807.276,542.194,802.98,551.0565,807.1103,547.1913,810.9756,551.3216,807.276,542.194" style="stroke: #000000; stroke-width: 0.5;"/><!--MD5=[0c5e0383e0023819d5867a1ede253779]
link _src_AssertionError to _src_StackCleaner--><path d="M546.038,521.942 C560.564,520.485 576.093,518.927 590.725,517.46 " fill="none" id="_src_AssertionError-&gt;_src_StackCleaner" style="stroke: #000000; stroke-width: 0.5;"/><polygon fill="#000000" points="596.071,516.924,586.7169,513.8415,591.0959,517.4227,587.5148,521.8016,596.071,516.924" style="stroke: #000000; stroke-width: 0.5;"/><!--MD5=[06cf7e398ac9f43837c016c757c26043]
link utilities/assert.utility to build/AssertionError--><path d="M351.282,239.666 C377.067,231.319 410.263,220.574 436.859,211.965 " fill="none" id="utilities/assert.utility-&gt;build/AssertionError" style="stroke: #000000; stroke-width: 0.5;"/><polygon fill="#000000" points="441.745,210.383,431.9505,209.3493,436.988,211.9229,434.4144,216.9605,441.745,210.383" style="stroke: #000000; stroke-width: 0.5;"/><!--MD5=[b575bfa7a036327d2f54f963a0cc97a0]
link utilities/assert.utility to chalk--><path d="M371.224,245.049 C473.608,233.136 672.957,216.735 722.844,262.079 C736.918,274.872 720.855,332.315 732.844,347.079 C743.739,360.495 762.094,366.755 777.859,369.657 " fill="none" id="utilities/assert.utility-&gt;chalk" style="stroke: #000000; stroke-width: 0.5;"/><polygon fill="#000000" points="783.091,370.517,774.8596,365.1092,778.1573,369.7054,773.5611,373.0031,783.091,370.517" style="stroke: #000000; stroke-width: 0.5;"/><!--MD5=[a216b5523bbec89ffcf815729579a3c0]
link utilities/assert.utility to lodash/lodash--><path d="M378.425,256.826 C483.295,264.044 676.28,283.681 722.844,332.079 C743.414,353.459 713.761,375.363 732.844,398.079 C738.004,404.221 744.723,408.861 752.014,412.364 " fill="none" id="utilities/assert.utility-&gt;lodash/lodash" style="stroke: #000000; stroke-width: 0.5;"/><polygon fill="#000000" points="756.619,414.401,750.0065,407.102,752.0464,412.3783,746.7702,414.4181,756.619,414.401" style="stroke: #000000; stroke-width: 0.5;"/><!--MD5=[738ed1b5688ea6e28dfafa714dc77966]
link _utilities_assert_utility to chalk--><path d="M376.4,575.673 C480.907,581.296 676.399,584.865 722.844,537.079 C744.429,514.872 714.018,422.669 732.844,398.079 C743.469,384.202 762.006,377.699 777.931,374.667 " fill="none" id="_utilities_assert_utility-&gt;chalk" style="stroke: #000000; stroke-width: 0.5;"/><polygon fill="#000000" points="783.216,373.766,773.672,371.3345,778.287,374.6058,775.0157,379.2209,783.216,373.766" style="stroke: #000000; stroke-width: 0.5;"/><!--MD5=[bfd71e61f32c7e055c7e7c9fb25572e2]
link _utilities_assert_utility to lodash/lodash--><path d="M349.042,588.157 C430.542,620.708 619.289,680.247 722.844,584.079 C744.887,563.609 714.532,472.945 732.844,449.079 C737.817,442.599 744.514,437.727 751.863,434.065 " fill="none" id="_utilities_assert_utility-&gt;lodash/lodash" style="stroke: #000000; stroke-width: 0.5;"/><polygon fill="#000000" points="756.514,431.939,746.6657,432.0453,751.9671,434.0189,749.9935,439.3203,756.514,431.939" style="stroke: #000000; stroke-width: 0.5;"/><!--MD5=[ad171278fbaf8d8b0f7379e638b3425e]
link _utilities_assert_utility to _src_AssertionError--><path d="M376.731,554.454 C389.825,551.2 403.553,547.788 416.626,544.538 " fill="none" id="_utilities_assert_utility-&gt;_src_AssertionError" style="stroke: #000000; stroke-width: 0.5;"/><polygon fill="#000000" points="421.794,543.254,412.0946,541.5448,416.9419,544.461,414.0257,549.3082,421.794,543.254" style="stroke: #000000; stroke-width: 0.5;"/><!--MD5=[8e554ba59767ef811222f34158655254]
link _AbstractSpruceTest_d to _AssertionError_d--><!--MD5=[379bc1e1e39c1939bc111b726d7db0f6]
link _AbstractSpruceTest_d to <b>decorators.d</b>--><!--MD5=[2a0fe42ce7c8f1fc3a640a8edc0323e5]
link <b>decorators.d</b> to _StackCleaner_d--><script type="text/plantuml"><![CDATA[MD5=[d6c8b407bd0ea3bd548fe14c23a2a438]
@startuml

scale max 1920 width
left to right direction

skinparam nodesep 17
skinparam ranksep 34
skinparam monochrome true
skinparam shadowing false
skinparam defaultFontName Tahoma
skinparam defaultFontSize 12
skinparam roundCorner 6
skinparam dpi 150
skinparam arrowColor black
skinparam arrowThickness 0.5
skinparam packageTitleAlignment left

skinparam usecase {
  borderThickness 0.5
}

skinparam rectangle {
  borderThickness 0.5
}

skinparam component {
  borderThickness 1
}


rectangle "<b>AbstractSpruceTest.d</b>" as _AbstractSpruceTest_d
rectangle "<b>assert.d</b>" as _assert_d
rectangle "<b>assert.utility.d</b>" as _assert_utility_d
rectangle "<b>AssertionError.d</b>" as _AssertionError_d
(<b>build</b>)
(build/AbstractSpruceTest)
(build/assert)
(build/AssertionError)
(build/decorators)
(build/StackCleaner)
(<b>decorators.d</b>)
(<b>index.d</b>)
(<b>release.config</b>)
(<b>src</b>)
rectangle "src/AbstractSpruceTest" as _src_AbstractSpruceTest
rectangle "src/assert" as _src_assert
rectangle "src/AssertionError" as _src_AssertionError
(src/decorators)
rectangle "src/StackCleaner" as _src_StackCleaner
rectangle "<b>StackCleaner.d</b>" as _StackCleaner_d
(utilities/assert.utility)
rectangle "utilities/assert.utility" as _utilities_assert_utility

package "Dependencies" {
  [@sprucelabs]
  [chalk]
  [deep-equal]
  [lodash/lodash]
  [ts-expect]
  [variable-diff]
}

_assert_d ---[thickness=1]> [ts-expect]
_assert_utility_d -[thickness=1]> (build/assert)
(<b>build</b>) -[thickness=1]> (build/AbstractSpruceTest)
(<b>build</b>) -[thickness=1]> (build/assert)
(<b>build</b>) -[thickness=1]> (build/decorators)
(<b>build</b>) -[thickness=1]> (build/StackCleaner)
(<b>build</b>) -[thickness=1]> (utilities/assert.utility)
(build/assert) ---> [chalk]
(build/assert) ---> [deep-equal]
(build/assert) ---> [lodash/lodash]
(build/assert) ---> [ts-expect]
(build/assert) --> (utilities/assert.utility)
(build/assert) ---> [variable-diff]
(build/AssertionError) --> (build/StackCleaner)
(<b>index.d</b>) -[thickness=1]> (build/AbstractSpruceTest)
(<b>index.d</b>) -[thickness=1]> (build/assert)
(<b>index.d</b>) -[thickness=1]> (build/decorators)
(<b>index.d</b>) -[thickness=1]> (build/StackCleaner)
(<b>index.d</b>) -[thickness=1]> (utilities/assert.utility)
(<b>release.config</b>) --[thickness=1]> [@sprucelabs]
(<b>src</b>) -[thickness=1]> _src_AbstractSpruceTest
(<b>src</b>) -[thickness=1]> _src_assert
(<b>src</b>) -[thickness=1]> (src/decorators)
(<b>src</b>) -[thickness=1]> _src_StackCleaner
(<b>src</b>) -[thickness=1]> _utilities_assert_utility
_src_assert ---> [chalk]
_src_assert ---> [deep-equal]
_src_assert ---> [lodash/lodash]
_src_assert ---> [ts-expect]
_src_assert --> _utilities_assert_utility
_src_assert ---> [variable-diff]
_src_AssertionError --> _src_StackCleaner
(utilities/assert.utility) --> (build/AssertionError)
(utilities/assert.utility) ----> [chalk]
(utilities/assert.utility) ----> [lodash/lodash]
_utilities_assert_utility ----> [chalk]
_utilities_assert_utility ----> [lodash/lodash]
_utilities_assert_utility --> _src_assert
_utilities_assert_utility --> _src_AssertionError

@enduml


' View and edit on https://arkit.pro
]]></script></g></svg>