<?xml version="1.0" encoding="UTF-8" standalone="no"?><svg xmlns="http://www.w3.org/2000/svg" xmlns:xlink="http://www.w3.org/1999/xlink" contentScriptType="application/ecmascript" contentStyleType="text/css" height="354px" preserveAspectRatio="none" style="width:573px;height:354px;" version="1.1" viewBox="0 0 573 354" width="573px" zoomAndPan="magnify"><defs/><g><!--MD5=[a6f11bb19cee6b13000111f5ad685e8b]
cluster Dependencies--><path d="M181,259 L275,259 A4.5,4.5 0 0 1 278,262 L285,279.4844 L558,279.4844 A3,3 0 0 1 561,282.4844 L561,339 A3,3 0 0 1 558,342 L181,342 A3,3 0 0 1 178,339 L178,262 A3,3 0 0 1 181,259 " fill="#FFFFFF" style="stroke: #000000; stroke-width: 1.5;"/><line style="stroke: #000000; stroke-width: 1.5;" x1="178" x2="285" y1="279.4844" y2="279.4844"/><text fill="#000000" font-family="Tahoma, sans-serif" font-size="12" font-weight="bold" lengthAdjust="spacingAndGlyphs" textLength="94" x="182" y="273.0059">Dependencies</text><!--MD5=[615ad5ae550da5648017cdb20aa0d703]
entity chalk--><rect fill="#F8F8F8" height="34.4844" rx="3" ry="3" style="stroke: #383838; stroke-width: 1.0;" width="50" x="311" y="292"/><rect fill="#F8F8F8" height="5" style="stroke: #383838; stroke-width: 1.0;" width="10" x="306" y="297"/><rect fill="#F8F8F8" height="5" style="stroke: #383838; stroke-width: 1.0;" width="10" x="306" y="316.4844"/><text fill="#000000" font-family="Tahoma, sans-serif" font-size="12" lengthAdjust="spacingAndGlyphs" textLength="30" x="321" y="314.0059">chalk</text><!--MD5=[859f94bf02821f3b7251cb78ca441081]
entity deep-equal--><rect fill="#F8F8F8" height="34.4844" rx="3" ry="3" style="stroke: #383838; stroke-width: 1.0;" width="84" x="461" y="292"/><rect fill="#F8F8F8" height="5" style="stroke: #383838; stroke-width: 1.0;" width="10" x="456" y="297"/><rect fill="#F8F8F8" height="5" style="stroke: #383838; stroke-width: 1.0;" width="10" x="456" y="316.4844"/><text fill="#000000" font-family="Tahoma, sans-serif" font-size="12" lengthAdjust="spacingAndGlyphs" textLength="64" x="471" y="314.0059">deep-equal</text><!--MD5=[8fb31415cf2fe3335a33b70fa96e9abb]
entity lodash/lodash--><rect fill="#F8F8F8" height="34.4844" rx="3" ry="3" style="stroke: #383838; stroke-width: 1.0;" width="103" x="194.5" y="292"/><rect fill="#F8F8F8" height="5" style="stroke: #383838; stroke-width: 1.0;" width="10" x="189.5" y="297"/><rect fill="#F8F8F8" height="5" style="stroke: #383838; stroke-width: 1.0;" width="10" x="189.5" y="316.4844"/><text fill="#000000" font-family="Tahoma, sans-serif" font-size="12" lengthAdjust="spacingAndGlyphs" textLength="83" x="204.5" y="314.0059">lodash/lodash</text><!--MD5=[eac801bc0a240c84514e1045ec36163b]
entity ts-expect--><rect fill="#F8F8F8" height="34.4844" rx="3" ry="3" style="stroke: #383838; stroke-width: 1.0;" width="74" x="374" y="292"/><rect fill="#F8F8F8" height="5" style="stroke: #383838; stroke-width: 1.0;" width="10" x="369" y="297"/><rect fill="#F8F8F8" height="5" style="stroke: #383838; stroke-width: 1.0;" width="10" x="369" y="316.4844"/><text fill="#000000" font-family="Tahoma, sans-serif" font-size="12" lengthAdjust="spacingAndGlyphs" textLength="54" x="384" y="314.0059">ts-expect</text><ellipse cx="23.8492" cy="46.242" fill="#F8F8F8" rx="17.8492" ry="13.242" style="stroke: #383838; stroke-width: 0.5;"/><text fill="#000000" font-family="Tahoma, sans-serif" font-size="12" font-weight="bold" lengthAdjust="spacingAndGlyphs" textLength="21" x="13.3492" y="49.9842">src</text><!--MD5=[eb5e88b014fcb7710ea0f622fc1f7202]
entity _src_AbstractSpruceTest--><rect fill="#F8F8F8" height="34.4844" rx="3" ry="3" style="stroke: #000000; stroke-width: 0.5;" width="155" x="55.5" y="29"/><text fill="#000000" font-family="Tahoma, sans-serif" font-size="12" lengthAdjust="spacingAndGlyphs" textLength="135" x="65.5" y="51.0059">src/AbstractSpruceTest</text><!--MD5=[7050949a335d1c0d20ce52fdd4900ddf]
entity _src_assert--><rect fill="#F8F8F8" height="34.4844" rx="3" ry="3" style="stroke: #000000; stroke-width: 0.5;" width="79" x="355.5" y="29"/><text fill="#000000" font-family="Tahoma, sans-serif" font-size="12" lengthAdjust="spacingAndGlyphs" textLength="59" x="365.5" y="51.0059">src/assert</text><!--MD5=[d05419a8150fbdd39f716badc9fab7ac]
entity _src_AssertionError--><rect fill="#F8F8F8" height="34.4844" rx="3" ry="3" style="stroke: #000000; stroke-width: 0.5;" width="124" x="81" y="149"/><text fill="#000000" font-family="Tahoma, sans-serif" font-size="12" lengthAdjust="spacingAndGlyphs" textLength="104" x="91" y="171.0059">src/AssertionError</text><ellipse cx="283.2159" cy="46.2432" fill="#F8F8F8" rx="59.2159" ry="14.2432" style="stroke: #383838; stroke-width: 0.5;"/><text fill="#000000" font-family="Tahoma, sans-serif" font-size="12" lengthAdjust="spacingAndGlyphs" textLength="86" x="240.2159" y="49.9854">src/decorators</text><!--MD5=[c076adabd2652095d9b833a88bd6b8a6]
entity _src_StackCleaner--><rect fill="#F8F8F8" height="34.4844" rx="3" ry="3" style="stroke: #000000; stroke-width: 0.5;" width="118" x="56" y="209"/><text fill="#000000" font-family="Tahoma, sans-serif" font-size="12" lengthAdjust="spacingAndGlyphs" textLength="98" x="66" y="231.0059">src/StackCleaner</text><!--MD5=[16164b954efd3f80b47df4057c6df1dd]
entity _utilities_assert_utility--><rect fill="#F8F8F8" height="34.4844" rx="3" ry="3" style="stroke: #000000; stroke-width: 0.5;" width="135" x="190.5" y="89"/><text fill="#000000" font-family="Tahoma, sans-serif" font-size="12" lengthAdjust="spacingAndGlyphs" textLength="115" x="200.5" y="111.0059">utilities/assert.utility</text><!--MD5=[b86ea30270945b3b6183bbf80994215b]
link <b>src</b> to _src_AbstractSpruceTest--><path d="M42.3086,46 C44.9028,46 47.4971,46 50.0913,46 " fill="none" id="&lt;b&gt;src&lt;/b&gt;-&gt;_src_AbstractSpruceTest" style="stroke: #000000; stroke-width: 1.0;"/><polygon fill="#000000" points="55.4163,46,46.4163,42,50.4163,46,46.4163,50,55.4163,46" style="stroke: #000000; stroke-width: 1.0;"/><!--MD5=[7b40a78a37e275eb69169cbfef23c3f5]
link <b>src</b> to _src_assert--><path d="M32.4972,34.309 C38.1586,27.563 46.2442,19.702 55.5,16 C85.0049,4.198 310.754,7.968 341.5,16 C349.947,18.207 358.471,22.077 366.155,26.319 " fill="none" id="&lt;b&gt;src&lt;/b&gt;-&gt;_src_assert" style="stroke: #000000; stroke-width: 1.0;"/><polygon fill="#000000" points="370.824,28.996,365.0053,21.0497,366.4862,26.5093,361.0266,27.9902,370.824,28.996" style="stroke: #000000; stroke-width: 1.0;"/><!--MD5=[491df807adc5051ba264f142c53c08e0]
link <b>src</b> to src/decorators--><path d="M32.4972,34.309 C38.1586,27.563 46.2442,19.702 55.5,16 C87.4809,3.208 176.716,9.286 210.5,16 C225.374,18.956 241.022,25.014 253.959,30.918 " fill="none" id="&lt;b&gt;src&lt;/b&gt;-&gt;src/decorators" style="stroke: #000000; stroke-width: 1.0;"/><polygon fill="#000000" points="258.595,33.08,252.1285,25.6514,254.0634,30.9671,248.7478,32.902,258.595,33.08" style="stroke: #000000; stroke-width: 1.0;"/><!--MD5=[2eaa9f6982ecce6151ee2ac2211d7f74]
link <b>src</b> to _src_StackCleaner--><path d="M26.6167,59.038 C32.3586,83.732 47.6911,141.299 74,183 C79.0464,190.999 85.8227,198.718 92.4114,205.309 " fill="none" id="&lt;b&gt;src&lt;/b&gt;-&gt;_src_StackCleaner" style="stroke: #000000; stroke-width: 1.0;"/><polygon fill="#000000" points="96.0402,208.85,92.3902,199.7025,92.4608,205.3589,86.8044,205.4295,96.0402,208.85" style="stroke: #000000; stroke-width: 1.0;"/><!--MD5=[48daec5c0a51730c61102907b8c3fddf]
link <b>src</b> to _utilities_assert_utility--><path d="M35.9675,55.933 C39.9448,58.547 44.5085,61.186 49,63 C92.5295,80.579 144.233,91.049 185.324,97.139 " fill="none" id="&lt;b&gt;src&lt;/b&gt;-&gt;_utilities_assert_utility" style="stroke: #000000; stroke-width: 1.0;"/><polygon fill="#000000" points="190.281,97.86,181.9509,92.6055,185.3331,97.1399,180.7987,100.5221,190.281,97.86" style="stroke: #000000; stroke-width: 1.0;"/><!--MD5=[63b95b48723dc574cdcea76906e86c35]
link _src_assert to chalk--><path d="M392.548,63.153 C387.283,96.861 373.982,177.041 357,243 C353.163,257.904 347.819,274.4007 343.483,287.0457 " fill="none" id="_src_assert-&gt;chalk" style="stroke: #000000; stroke-width: 0.5;"/><polygon fill="#000000" points="341.815,291.8649,348.5389,284.6684,343.4505,287.14,340.979,282.0516,341.815,291.8649" style="stroke: #000000; stroke-width: 0.5;"/><!--MD5=[e977cb1cf7b1c6fa7450d4457b5aee50]
link _src_assert to deep-equal--><path d="M401.756,63.327 C420.545,108.734 473.409,236.487 494.324,287.0342 " fill="none" id="_src_assert-&gt;deep-equal" style="stroke: #000000; stroke-width: 0.5;"/><polygon fill="#000000" points="496.247,291.6795,496.5017,281.8339,494.3351,287.0595,489.1096,284.8929,496.247,291.6795" style="stroke: #000000; stroke-width: 0.5;"/><!--MD5=[9628aa66d47e22eb45ef743211b13498]
link _src_assert to lodash/lodash--><path d="M385.679,63.327 C359.757,108.734 286.825,236.487 257.969,287.0342 " fill="none" id="_src_assert-&gt;lodash/lodash" style="stroke: #000000; stroke-width: 0.5;"/><polygon fill="#000000" points="255.317,291.6795,263.2524,285.846,257.7956,287.3371,256.3046,281.8803,255.317,291.6795" style="stroke: #000000; stroke-width: 0.5;"/><!--MD5=[3b1f76be469da40f9299b0d146b05153]
link _src_assert to ts-expect--><path d="M396.001,63.327 C398.773,108.551 406.553,235.458 409.677,286.419 " fill="none" id="_src_assert-&gt;ts-expect" style="stroke: #000000; stroke-width: 0.5;"/><polygon fill="#000000" points="410,291.6795,413.4416,282.4515,409.694,286.6889,405.4566,282.9412,410,291.6795" style="stroke: #000000; stroke-width: 0.5;"/><!--MD5=[7684a586e7571ed6ce1872831b68fb23]
link _src_assert to _utilities_assert_utility--><path d="M355.359,62.087 C336.791,69.699 314.787,78.987 296.381,86.973 " fill="none" id="_src_assert-&gt;_utilities_assert_utility" style="stroke: #000000; stroke-width: 0.5;"/><polygon fill="#000000" points="291.783,88.973,301.6316,89.0481,296.3674,86.9772,298.4383,81.7131,291.783,88.973" style="stroke: #000000; stroke-width: 0.5;"/><!--MD5=[22a64ca50d87dcbe74584438d6fb6bbf]
link _utilities_assert_utility to _src_assert--><path d="M300.913,88.849 C318.931,81.474 339.68,72.71 357.124,65.112 " fill="none" id="_utilities_assert_utility-&gt;_src_assert" style="stroke: #000000; stroke-width: 0.5;"/><polygon fill="#000000" points="361.952,63.002,352.1033,62.942,357.3707,65.0048,355.3078,70.2722,361.952,63.002" style="stroke: #000000; stroke-width: 0.5;"/><!--MD5=[0c5e0383e0023819d5867a1ede253779]
link _src_AssertionError to _src_StackCleaner--><path d="M135.2,183.156 C132.045,189.692 128.363,197.319 125.013,204.258 " fill="none" id="_src_AssertionError-&gt;_src_StackCleaner" style="stroke: #000000; stroke-width: 0.5;"/><polygon fill="#000000" points="122.758,208.93,130.2719,202.5628,124.931,204.4269,123.0669,199.086,122.758,208.93" style="stroke: #000000; stroke-width: 0.5;"/><!--MD5=[738ed1b5688ea6e28dfafa714dc77966]
link _utilities_assert_utility to chalk--><path d="M264.251,123.109 C278.286,159.274 312.287,246.895 327.908,287.147 " fill="none" id="_utilities_assert_utility-&gt;chalk" style="stroke: #000000; stroke-width: 0.5;"/><polygon fill="#000000" points="329.719,291.8144,330.1919,281.9769,327.9101,287.1531,322.7339,284.8712,329.719,291.8144" style="stroke: #000000; stroke-width: 0.5;"/><!--MD5=[bfd71e61f32c7e055c7e7c9fb25572e2]
link _utilities_assert_utility to lodash/lodash--><path d="M257.038,123.109 C254.888,159.127 249.691,246.183 247.274,286.6538 " fill="none" id="_utilities_assert_utility-&gt;lodash/lodash" style="stroke: #000000; stroke-width: 0.5;"/><polygon fill="#000000" points="246.966,291.8144,251.4955,283.0689,247.2641,286.8233,243.5097,282.5919,246.966,291.8144" style="stroke: #000000; stroke-width: 0.5;"/><!--MD5=[ad171278fbaf8d8b0f7379e638b3425e]
link _utilities_assert_utility to _src_AssertionError--><path d="M226.271,123.002 C211.811,130.295 194.61,138.971 179.605,146.538 " fill="none" id="_utilities_assert_utility-&gt;_src_AssertionError" style="stroke: #000000; stroke-width: 0.5;"/><polygon fill="#000000" points="175.024,148.849,184.8611,148.3678,179.4884,146.5975,181.2587,141.2248,175.024,148.849" style="stroke: #000000; stroke-width: 0.5;"/><script type="text/plantuml"><![CDATA[MD5=[ecd949521b03417524bf54f26dc14a78]
@startuml

scale max 1920 width
top to bottom direction

skinparam nodesep 13
skinparam ranksep 26
skinparam monochrome true
skinparam shadowing false
skinparam defaultFontName Tahoma
skinparam defaultFontSize 12
skinparam roundCorner 6
skinparam dpi 150
skinparam arrowColor black
skinparam arrowThickness 0.5
skinparam packageTitleAlignment left

skinparam usecase {
  borderThickness 0.5
}

skinparam rectangle {
  borderThickness 0.5
}

skinparam component {
  borderThickness 1
}


(<b>src</b>)
rectangle "src/AbstractSpruceTest" as _src_AbstractSpruceTest
rectangle "src/assert" as _src_assert
rectangle "src/AssertionError" as _src_AssertionError
(src/decorators)
rectangle "src/StackCleaner" as _src_StackCleaner
rectangle "utilities/assert.utility" as _utilities_assert_utility

package "Dependencies" {
  [chalk]
  [deep-equal]
  [lodash/lodash]
  [ts-expect]
}

(<b>src</b>) -[thickness=1]> _src_AbstractSpruceTest
(<b>src</b>) -[thickness=1]> _src_assert
(<b>src</b>) -[thickness=1]> (src/decorators)
(<b>src</b>) -[thickness=1]> _src_StackCleaner
(<b>src</b>) -[thickness=1]> _utilities_assert_utility
_src_assert ---> [chalk]
_src_assert ---> [deep-equal]
_src_assert ---> [lodash/lodash]
_src_assert ---> [ts-expect]
_src_assert --> _utilities_assert_utility
_src_AssertionError --> _src_StackCleaner
_utilities_assert_utility ----> [chalk]
_utilities_assert_utility ----> [lodash/lodash]
_utilities_assert_utility --> _src_assert
_utilities_assert_utility --> _src_AssertionError

@enduml


' View and edit on https://arkit.pro
]]></script></g></svg>